<svg width="512" height="512" viewBox="0 0 512 512" xmlns="http://www.w3.org/2000/svg" role="img" aria-label="mask — a persona trailing its switchable clones">
  <title>mask</title>
  <rect width="512" height="512" rx="104" fill="#F4F1EA"/>
  <defs>
    <path id="m" d="M256 120 C314 120 352 162 352 222 C352 300 316 366 256 392 C196 366 160 300 160 222 C160 162 198 120 256 120 Z"/>
  </defs>
  <use href="#m" fill="#C4BBE6" transform="translate(104 -8) rotate(13 256 256)"/>
  <use href="#m" fill="#8E83C6" transform="translate(54 -4) rotate(6.5 256 256)"/>
  <use href="#m" fill="#34285F"/>
  <path d="M206 224 q24 -24 48 0 q-24 16 -48 0 Z" fill="#F4F1EA"/>
  <path d="M262 224 q24 -24 48 0 q-24 16 -48 0 Z" fill="#F4F1EA"/>
  <path d="M228 306 q28 20 56 0" stroke="#F4F1EA" stroke-width="10" fill="none" stroke-linecap="round"/>
</svg>
