<svg width="1280" height="640" viewBox="0 0 1280 640" xmlns="http://www.w3.org/2000/svg" role="img" aria-label="mask — Distill anything. Wear anyone.">
  <title>mask — Distill anything. Wear anyone.</title>
  <defs>
    <path id="m" d="M256 120 C314 120 352 162 352 222 C352 300 316 366 256 392 C196 366 160 300 160 222 C160 162 198 120 256 120 Z"/>
    <linearGradient id="bg" x1="0" y1="0" x2="1" y2="1">
      <stop offset="0" stop-color="#3B2E6B"/>
      <stop offset="1" stop-color="#241B45"/>
    </linearGradient>
  </defs>

  <rect width="1280" height="640" fill="url(#bg)"/>

  <!-- mask motif: cream front pops on dark, purple clones trail right -->
  <g transform="translate(70 96) scale(0.86)">
    <use href="#m" fill="#6E63A6" transform="translate(104 -8) rotate(13 256 256)"/>
    <use href="#m" fill="#9D93C9" transform="translate(54 -4) rotate(6.5 256 256)"/>
    <use href="#m" fill="#F4F1EA"/>
    <path d="M206 224 q24 -24 48 0 q-24 16 -48 0 Z" fill="#34285F"/>
    <path d="M262 224 q24 -24 48 0 q-24 16 -48 0 Z" fill="#34285F"/>
    <path d="M228 306 q28 20 56 0" stroke="#34285F" stroke-width="10" fill="none" stroke-linecap="round"/>
  </g>

  <!-- wordmark + tagline -->
  <g>
    <text x="606" y="300" font-family="'Space Grotesk', Helvetica, Arial, sans-serif" font-size="170" font-weight="700" fill="#F4F1EA" letter-spacing="-4">mask</text>
    <text x="612" y="372" font-family="'Space Grotesk', Helvetica, Arial, sans-serif" font-size="44" font-weight="600" fill="#C4BBE6">Distill anything. Wear anyone.</text>
    <text x="612" y="430" font-family="'Inter', Helvetica, Arial, sans-serif" font-size="27" fill="#9D93C9">agent-native persona distillation · no API key</text>
    <text x="612" y="486" font-family="'Inter', Helvetica, Arial, sans-serif" font-size="22" textLength="640" lengthAdjust="spacingAndGlyphs" fill="#9D93C9">voice · code · blend  ·  one AGENTS.md → 30+ agents  ·  4 source kinds</text>
  </g>
</svg>
